Coordinates
version=1
nRows=9
nColumns=24
inDegrees=yes

Units are S.I. units (second, meters, Newtons, ...)
Angles are in degrees.

endheader
time	pelvis_tilt	pelvis_list	pelvis_rotation	pelvis_tx	pelvis_ty	pelvis_tz	hip_flexion_r	hip_adduction_r	hip_rotation_r	knee_angle_r	ankle_angle_r	subtalar_angle_r	mtp_angle_r	hip_flexion_l	hip_adduction_l	hip_rotation_l	knee_angle_l	ankle_angle_l	subtalar_angle_l	mtp_angle_l	lumbar_extension	lumbar_bending	lumbar_rotation
      4.53000000	      6.69262101	      2.54184093	      5.88691086	     -0.44164611	      0.78483301	     -0.12951068	     18.66804740	     -2.85912979	      2.27119797	     -0.61129505	      5.17847686	      5.55031034	      0.00000000	    -33.64234487	      1.83706991	      6.79063871	      3.14580779	     15.77907720	     -3.06113843	      0.00000000	    -27.04131653	      0.96443670	    -13.55637948
      4.54000000	      6.60907626	      1.96705407	      5.72941969	     -0.42708301	      0.78356598	     -0.12796862	     19.18424157	     -1.98187564	      1.65872042	     -2.66108724	      5.41082796	      4.77483959	      0.00000000	    -34.17087851	      1.12978725	      6.47925176	      2.41763513	     15.01696958	     -2.78656408	      0.00000000	    -26.69561289	      1.42004160	    -13.10082384
      4.55000000	      6.56012519	      1.33087201	      5.57164933	     -0.41223554	      0.78254766	     -0.12644513	     19.72268061	     -1.03849290	      1.09595833	     -5.11872504	      5.30459884	      3.65446516	      0.00000000	    -34.64071136	      0.39323122	      6.02592693	      1.50646941	     14.17535251	     -2.36232622	      0.00000000	    -26.34006380	      1.96293845	    -12.65216619
      4.56000000	      6.50571210	      0.61201658	      5.29999899	     -0.39707253	      0.78167278	     -0.12479542	     20.28990211	      0.03309340	      0.98415721	     -7.79192224	      4.72264709	      2.08165134	      0.00000000	    -35.02958827	     -0.32407752	      5.41817187	      0.43600688	     13.19378527	     -1.95118403	      0.00000000	    -25.91787911	      2.56904681	    -12.08098700
      4.57000000	      6.49840943	     -0.02807929	      4.89735556	     -0.38183552	      0.78107895	     -0.12288882	     20.77917377	      1.11870949	      1.64084975	    -10.51560725	      3.66120068	      0.00186265	      0.00000000	    -35.32519384	     -0.86640324	      4.69814735	     -0.89707222	     11.94848135	     -1.63517819	      0.00000000	    -25.58072854	      3.02567219	    -11.47507865
      4.58000000	      6.44552716	     -0.79660724	      4.44987834	     -0.36637309	      0.78064350	     -0.12104512	     21.34222204	      2.34370436	      2.13173702	    -13.36615613	      2.79376852	     -1.29560438	      0.00000000	    -35.47559709	     -1.46133551	      4.27946580	     -2.41118986	     10.47458032	     -1.78440212	      0.00000000	    -25.15616325	      3.65623368	    -10.79491788
      4.59000000	      6.43804562	     -1.47952234	      3.89737421	     -0.35093230	      0.78051951	     -0.11909060	     21.79517454	      3.56958248	      3.02484996	    -16.15523184	      2.03645839	     -2.42252427	      0.00000000	    -35.47886623	     -1.87169405	      3.97886930	     -4.25887948	      8.68149891	     -2.28812896	      0.00000000	    -24.83262145	      4.17831083	    -10.11462442
      4.60000000	      6.46793792	     -2.10733677	      3.32409150	     -0.33554677	      0.78071094	     -0.11721313	     22.11917839	      4.77250963	      3.97586009	    -18.83476236	      1.70179793	     -3.04823747	      0.00000000	    -35.27490049	     -2.16418637	      3.86794294	     -6.50722227	      6.66854588	     -3.09018932	      0.00000000	    -24.60155752	      4.67308031	     -9.45471605
      4.61000000	      6.52098615	     -2.60371563	      2.69544493	     -0.32038589	      0.78117132	     -0.11543889	     22.32274534	      5.87175574	      4.92396406	    -21.37777850	      1.84469149	     -3.27227135	      0.00000000	    -34.81792555	     -2.23909677	      3.97681042	     -9.18390659	      4.46265098	     -4.18247234	      0.00000000	    -24.48536636	      5.05215128	     -8.86450456
